HIERARCHY
ROOT Hips
{
	OFFSET -0.001795 -0.223333 0.028219
	CHANNELS 6 Xposition Yposition Zposition Zrotation Yrotation Xrotation 
	JOINT LeftUpLeg
	{
		OFFSET 0.069520 -0.091406 -0.006815
		CHANNELS 3 Zrotation Yrotation Xrotation
		JOINT LeftLeg
		{
			OFFSET 0.034277 -0.375199 -0.004496
			CHANNELS 3 Zrotation Yrotation Xrotation
			JOINT LeftFoot
			{
				OFFSET -0.013596 -0.397961 -0.043693
				CHANNELS 3 Zrotation Yrotation Xrotation
				JOINT LeftToe
				{
					OFFSET 0.026358 -0.055791 0.119288
					CHANNELS 3 Zrotation Yrotation Xrotation
					End Site
					{
						OFFSET 0.000000 0.000000 0.000000
					}
				}
			}
		}
	}
	JOINT RightUpLeg
	{
		OFFSET -0.067670 -0.090522 -0.004320
		CHANNELS 3 Zrotation Yrotation Xrotation
		JOINT RightLeg
		{
			OFFSET -0.038290 -0.382569 -0.008850
			CHANNELS 3 Zrotation Yrotation Xrotation
			JOINT RightFoot
			{
				OFFSET 0.015774 -0.398415 -0.042312
				CHANNELS 3 Zrotation Yrotation Xrotation
				JOINT RightToe
				{
					OFFSET -0.025372 -0.048144 0.123348
					CHANNELS 3 Zrotation Yrotation Xrotation
					End Site
					{
						OFFSET 0.000000 0.000000 0.000000
					}
				}
			}
		}
	}
	JOINT Spine
	{
		OFFSET -0.002533 0.108963 -0.026696
		CHANNELS 3 Zrotation Yrotation Xrotation
		JOINT Spine1
		{
			OFFSET 0.005487 0.135180 0.001092
			CHANNELS 3 Zrotation Yrotation Xrotation
			JOINT Spine2
			{
				OFFSET 0.001457 0.052922 0.025425
				CHANNELS 3 Zrotation Yrotation Xrotation
				JOINT Neck
				{
					OFFSET -0.002778 0.213870 -0.042857
					CHANNELS 3 Zrotation Yrotation Xrotation
					JOINT Head
					{
						OFFSET 0.005152 0.064970 0.051349
						CHANNELS 3 Zrotation Yrotation Xrotation
						End Site
						{
							OFFSET 0.000000 0.000000 0.000000
						}
					}
				}
				JOINT LeftShoulder
				{
					OFFSET 0.078845 0.121749 -0.034090
					CHANNELS 3 Zrotation Yrotation Xrotation
					JOINT LeftArm
					{
						OFFSET 0.090977 0.030469 -0.008868
						CHANNELS 3 Zrotation Yrotation Xrotation
						JOINT LeftForeArm
						{
							OFFSET 0.259612 -0.012772 -0.027456
							CHANNELS 3 Zrotation Yrotation Xrotation
							JOINT LeftHand
							{
								OFFSET 0.249234 0.008986 -0.001171
								CHANNELS 3 Zrotation Yrotation Xrotation
								End Site
								{
									OFFSET 0.000000 0.000000 0.000000
								}
							}
						}
					}
				}
				JOINT RightShoulder
				{
					OFFSET -0.081759 0.118833 -0.038615
					CHANNELS 3 Zrotation Yrotation Xrotation
					JOINT RightArm
					{
						OFFSET -0.096012 0.032551 -0.009143
						CHANNELS 3 Zrotation Yrotation Xrotation
						JOINT RightForeArm
						{
							OFFSET -0.253742 -0.013329 -0.021401
							CHANNELS 3 Zrotation Yrotation Xrotation
							JOINT RightHand
							{
								OFFSET -0.255298 0.007772 -0.005559
								CHANNELS 3 Zrotation Yrotation Xrotation
								End Site
								{
									OFFSET 0.000000 0.000000 0.000000
								}
							}
						}
					}
				}
			}
		}
	}
}
MOTION
Frames: 10
Frame Time: 0.050000
0.000000 0.975102 0.000000 -1.091319 3.622372 3.449358 2.386256 0.179938 3.726174 -1.615474 0.303172 -7.901225 3.355247 11.065979 15.094244 0.000000 0.000000 0.000000 2.269981 -0.320238 2.114532 -0.449998 -0.221122 -6.092609 -3.435977 -11.782928 17.010675 0.000000 0.000000 0.000000 -1.254718 -0.050511 2.418449 2.354535 0.150111 -25.263241 -0.588284 0.815274 28.392842 3.426294 0.432675 -29.649717 0.000000 0.000000 0.000000 -15.355146 1.423046 -2.142371 -55.675930 -5.800077 -6.462212 -16.062422 -29.041390 5.595374 0.000000 0.000000 0.000000 8.309635 3.339748 1.455034 61.034321 8.353143 -3.942198 5.811491 29.039083 3.006338 0.000000 0.000000 0.000000 
0.000271 0.973655 -0.003258 -1.317574 2.925311 4.117757 2.232123 0.136347 2.902594 -1.625035 0.318643 -8.554192 4.375265 12.232525 13.646594 0.000000 0.000000 0.000000 2.678767 -0.149196 0.579510 -1.035203 -0.156020 -5.465077 -3.522895 -11.771890 15.175735 0.000000 0.000000 0.000000 -1.463633 -0.018652 1.709100 2.696955 0.043241 -24.770552 -0.477332 1.031335 28.507219 3.683986 0.367101 -30.846850 0.000000 0.000000 0.000000 -14.377437 2.156385 -2.340854 -56.479748 -5.598585 -6.661686 -17.215911 -30.443914 6.256059 0.000000 0.000000 0.000000 7.150946 3.494439 1.470087 62.490860 8.618923 -3.799659 3.804154 29.576399 2.594433 0.000000 0.000000 0.000000 
0.000545 0.973251 -0.006745 -1.126174 1.966427 4.421293 2.055914 0.124856 2.528627 -1.939217 0.338666 -8.766140 4.524783 12.572768 14.872308 0.000000 0.000000 0.000000 2.339913 -0.159135 0.711911 -1.361647 -0.240723 -7.396422 -2.703264 -10.623909 16.062981 0.000000 0.000000 0.000000 -1.367836 -0.019401 1.684002 2.895750 0.014027 -25.419692 -0.294331 1.365960 29.505942 3.570964 0.395928 -31.208677 0.000000 0.000000 0.000000 -12.972161 2.368724 -2.196120 -56.697219 -5.759811 -6.715202 -19.598555 -30.948056 7.119874 0.000000 0.000000 0.000000 5.824846 3.505861 1.421838 62.931895 8.939341 -3.690843 4.629645 30.913555 2.967291 0.000000 0.000000 0.000000 
0.000823 0.973334 -0.010624 -1.130578 1.984168 4.566584 1.879678 0.116843 2.306851 -1.706766 0.338558 -9.172099 4.902022 13.206473 15.359168 0.000000 0.000000 0.000000 2.584686 -0.124263 0.354106 -1.414837 -0.273308 -8.032914 -3.073301 -11.399036 16.922605 0.000000 0.000000 0.000000 -1.694879 -0.004243 1.585470 3.381660 -0.111707 -25.115083 -0.421974 1.085503 29.606588 3.470683 0.494535 -32.278056 0.000000 0.000000 0.000000 -12.197328 2.710104 -2.225464 -56.181899 -6.395201 -6.373088 -21.249351 -33.881226 8.412129 0.000000 0.000000 0.000000 4.911224 4.282722 1.694663 61.901146 10.146004 -3.070716 4.895940 32.145645 3.162999 0.000000 0.000000 0.000000 
0.000946 0.973468 -0.014894 -1.112714 1.763137 4.126182 1.790326 0.131708 2.410370 -1.823620 0.341922 -9.039369 4.533952 12.682440 15.557114 0.000000 0.000000 0.000000 2.725924 -0.194857 0.887026 -1.980157 -0.283111 -8.558863 -2.872018 -11.147961 17.247994 0.000000 0.000000 0.000000 -1.962735 -0.022451 2.619324 4.289783 -0.327981 -25.042274 -0.768699 1.224957 29.285067 3.246182 0.559035 -31.608466 0.000000 0.000000 0.000000 -10.915253 2.715823 -2.080469 -55.239785 -8.179016 -5.455085 -23.086035 -37.312984 9.993899 0.000000 0.000000 0.000000 4.314049 4.177325 1.627794 60.051264 11.849213 -2.165567 7.181073 35.629836 4.308336 0.000000 0.000000 0.000000 
0.001038 0.973100 -0.019758 -1.105327 1.687220 3.974894 1.614143 0.133414 2.309900 -1.568007 0.337542 -9.105305 4.326720 12.381477 15.599826 0.000000 0.000000 0.000000 2.737131 -0.205683 0.974263 -1.833630 -0.300919 -8.787461 -2.983279 -11.360454 17.317453 0.000000 0.000000 0.000000 -2.104272 -0.021254 2.794832 4.475818 -0.367638 -25.118251 -0.520261 0.765272 29.619314 2.673930 0.816206 -32.293613 0.000000 0.000000 0.000000 -9.760187 1.978249 -1.546647 -52.130930 -11.833808 -3.687551 -24.228533 -43.147687 12.224917 0.000000 0.000000 0.000000 3.040881 5.210005 1.960253 57.057294 14.616049 -0.948572 8.501044 40.465150 5.457656 0.000000 0.000000 0.000000 
0.001167 0.972560 -0.026072 -0.913383 1.463740 3.780453 1.444356 0.110009 1.877667 -1.712459 0.335592 -8.632416 4.344324 12.346810 15.360109 0.000000 0.000000 0.000000 2.098986 -0.071846 0.076778 -1.718290 -0.251644 -7.869919 -2.921831 -11.152981 16.501926 0.000000 0.000000 0.000000 -2.404503 -0.023705 3.510687 4.951546 -0.488507 -24.966272 -0.980781 0.523320 29.240586 2.446717 0.836562 -31.847945 0.000000 0.000000 0.000000 -8.157480 1.154473 -0.998110 -47.633912 -17.118451 -1.426758 -22.887193 -51.070124 14.045785 0.000000 0.000000 0.000000 1.713392 6.436021 2.345412 53.546270 18.373550 0.641644 7.068093 47.887043 6.026325 0.000000 0.000000 0.000000 
0.001334 0.971626 -0.034534 -0.957997 2.349931 3.677224 1.549353 0.051875 1.204888 -1.563476 0.314011 -8.068424 3.883384 11.729399 15.141037 0.000000 0.000000 0.000000 2.345141 0.174162 -1.958678 -2.028158 -0.116713 -5.813791 -3.434728 -11.825974 16.074137 0.000000 0.000000 0.000000 -2.357644 -0.055006 4.714732 5.244654 -0.560121 -24.781592 -1.166107 -0.302568 28.954049 2.488595 0.716016 -31.160153 0.000000 0.000000 0.000000 -6.331086 -0.985817 0.050454 -42.548016 -23.594634 0.774551 -13.565887 -59.432087 11.161933 0.000000 0.000000 0.000000 0.277118 7.895406 2.789164 49.556463 23.810313 2.680435 -4.893853 56.402739 1.110510 0.000000 0.000000 0.000000 
0.001552 0.971431 -0.045935 -0.829167 2.770389 3.688303 1.610029 -0.091451 -0.667996 -1.842479 0.291920 -6.159186 4.067776 11.821979 13.885941 0.000000 0.000000 0.000000 1.381249 0.469059 -4.464902 -1.280234 0.014755 -2.485935 -3.476784 -11.551002 14.174175 0.000000 0.000000 0.000000 -2.361555 -0.080233 5.810341 5.638848 -0.684988 -24.206780 -1.292800 -0.442829 28.434343 1.830198 1.045456 -30.595622 0.000000 0.000000 0.000000 -3.057896 -3.175353 1.029556 -37.374538 -29.288114 2.170668 9.627793 -61.967652 -2.469963 0.000000 0.000000 0.000000 -2.153690 9.252218 3.090529 45.540393 30.441526 4.918475 -25.952136 60.120661 -10.676676 0.000000 0.000000 0.000000 
0.001861 0.970801 -0.060464 -1.121709 3.409273 3.958444 2.171336 -0.307966 -3.515000 -2.145664 0.262677 -3.126515 4.135418 11.793617 12.799564 0.000000 0.000000 0.000000 1.319889 0.815978 -7.610163 -0.816566 0.137787 1.044803 -3.868730 -12.130955 13.964554 0.000000 0.000000 0.000000 -1.988934 -0.165946 7.892084 5.740587 -0.724973 -23.840692 -1.039467 -1.502594 27.323799 1.146263 1.261039 -29.967320 0.000000 0.000000 0.000000 -0.343128 -5.459089 1.901345 -30.674643 -33.476736 2.456461 34.173843 -59.897146 -16.787980 0.000000 0.000000 0.000000 -5.605903 11.190225 3.444261 40.933609 37.796484 6.817923 -48.062962 56.855745 -22.420818 0.000000 0.000000 0.000000 
